<mxfile host="app.diagrams.net" modified="2023-11-26T14:28:01.813Z" agent="Mozilla/5.0 (Windows NT 10.0; Win64; x64) AppleWebKit/537.36 (KHTML, like Gecko) Chrome/118.0.0.0 Safari/537.36 OPR/104.0.0.0 (Edition std-1)" version="22.1.4" etag="Qsb5WXavfPsRiQhQ-w8I" type="github">
  <diagram name="Seite-1" id="AN8Gt63PVF4YpWbxp6Zs">
    <mxGraphModel>
      <root>
        <mxCell id="0" />
        <mxCell id="1" parent="0" />
      </root>
    </mxGraphModel>
  </diagram>
</mxfile>
